# xmcd
#
# Track frame offsets: 
#        150
#        9275
#        18387
#        28262
#        40637
#        53712
#        64260
#        75837
#        87262
#        95812
#        105180
#        116437
#        128167
#        139362
#        149482
#        161225
#        172137
#        184230
#        195267
#        206352
#        218360
#        231020
#        244722
#        255865
#        267172
#        279285
#        289150
#        300920
#
# Disc length: 4206 seconds
#
# Revision: 10
# Processed by: cddbd v1.5.2PL0 Copyright (c) Steve Scherf et al.
# Submitted via: ExactAudioCopyFreeDBPlugin 1.0
#
DISCID=74106c1c
DTITLE=Sam Cooke - The Man and His Music
DYEAR=1986
DGENRE=Soul
TTITLE0=Touch the Hem of His Garment
TTITLE1=That's Heaven to Me
TTITLE2=I'll Come Running Back to You
TTITLE3=You Send Me
TTITLE4=Win Your Love for Me
TTITLE5=Just for You
TTITLE6=Chain Gang
TTITLE7=When a Boy Falls in Love
TTITLE8=Only Sixteen
TTITLE9=Wonderful World
TTITLE10=Cupid
TTITLE11=Nothing Can Change This Love
TTITLE12=Rome Wasn't Built in a Day
TTITLE13=Love Will Find a Way
TTITLE14=Everybody Loves to Cha Cha Cha
TTITLE15=Another Saturday Night
TTITLE16=Meet Me at Mary's Place
TTITLE17=Having a Party
TTITLE18=Good Times
TTITLE19=Twistin' the Night Away
TTITLE20=Shake
TTITLE21=Somebody Have Mercy
TTITLE22=Sad Mood
TTITLE23=Ain't That Good News
TTITLE24=Bring it on Home to Me
TTITLE25=Soothe Me
TTITLE26=That's Where It's At
TTITLE27=A Change is Gonna Come
EXTD=Updated 7-21-01 (Added stereo/mono to track info) YEAR: 1986
EXTT0=
EXTT1=
EXTT2=
EXTT3=
EXTT4=
EXTT5=
EXTT6=
EXTT7=
EXTT8=
EXTT9=
EXTT10=
EXTT11=
EXTT12=
EXTT13=
EXTT14=
EXTT15=
EXTT16=
EXTT17=
EXTT18=
EXTT19=
EXTT20=
EXTT21=
EXTT22=
EXTT23=
EXTT24=
EXTT25=
EXTT26=
EXTT27=
PLAYORDER=
